<svg xmlns="http://www.w3.org/2000/svg" width="212" height="30" viewBox="0 0 212 30" fill="currentColor">
    <path d="M4.47593 29.5696H0L10.0572 1.13836H14.9289L24.9861 29.5696H20.5101L12.609 6.30264H12.3907L4.47593 29.5696ZM5.22646 18.4359H19.7459V22.0454H5.22646V18.4359Z" fill="currentColor"></path>
    <path d="M26.0045 29.5696V8.24618H29.9209V11.7168H30.1802C30.6168 10.5414 31.331 9.62517 32.3226 8.96807C33.3142 8.30171 34.5014 7.96853 35.8843 7.96853C37.2853 7.96853 38.4588 8.30171 39.4049 8.96807C40.3602 9.63443 41.0652 10.5507 41.5201 11.7168H41.7384C42.2388 10.5784 43.0348 9.67145 44.1265 8.99584C45.2182 8.31097 46.5191 7.96853 48.0293 7.96853C49.9307 7.96853 51.4818 8.57473 52.6826 9.78714C53.8926 10.9995 54.4976 12.8274 54.4976 15.2707V29.5696H50.4174V15.6594C50.4174 14.2156 50.0307 13.1698 49.2575 12.522C48.4842 11.8741 47.5608 11.5502 46.4873 11.5502C45.1591 11.5502 44.1265 11.9667 43.3896 12.7996C42.6527 13.6233 42.2843 14.683 42.2843 15.9787V29.5696H38.2177V15.3957C38.2177 14.2388 37.8629 13.3087 37.1533 12.6053C36.4437 11.9019 35.5204 11.5502 34.3832 11.5502C33.6099 11.5502 32.8958 11.7584 32.2407 12.1749C31.5948 12.5821 31.0717 13.1513 30.6714 13.8825C30.2802 14.6136 30.0847 15.4604 30.0847 16.423V29.5696H26.0045Z" fill="currentColor"></path>
    <path d="M57.6038 29.5696V1.13836H61.684V11.7029H61.9296C62.1662 11.2587 62.5073 10.745 62.9531 10.162C63.3989 9.5789 64.0175 9.06987 64.809 8.63489C65.6005 8.19065 66.6467 7.96853 67.9476 7.96853C69.6397 7.96853 71.1499 8.40352 72.4781 9.27349C73.8063 10.1435 74.848 11.3975 75.6031 13.0356C76.3672 14.6738 76.7493 16.6451 76.7493 18.9496C76.7493 21.2541 76.3718 23.23 75.6167 24.8774C74.8616 26.5155 73.8245 27.7788 72.5054 28.6673C71.1863 29.5465 69.6806 29.9861 67.9885 29.9861C66.7149 29.9861 65.6732 29.7686 64.8636 29.3336C64.063 28.8987 63.4353 28.3896 62.9804 27.8066C62.5255 27.2235 62.1753 26.7052 61.9296 26.2517H61.5885V29.5696H57.6038ZM61.6021 18.9079C61.6021 20.4072 61.8159 21.7214 62.2435 22.8505C62.6711 23.9796 63.2897 24.8635 64.0994 25.5021C64.9091 26.1314 65.9007 26.4461 67.0742 26.4461C68.2933 26.4461 69.3122 26.1175 70.131 25.4604C70.9497 24.7941 71.5684 23.8917 71.9868 22.7534C72.4144 21.615 72.6282 20.3332 72.6282 18.9079C72.6282 17.5012 72.419 16.2379 72.0005 15.118C71.5911 13.9981 70.9725 13.1143 70.1446 12.4665C69.3258 11.8186 68.3024 11.4947 67.0742 11.4947C65.8916 11.4947 64.8909 11.8047 64.0721 12.4248C63.2624 13.0449 62.6483 13.9102 62.2299 15.0208C61.8114 16.1314 61.6021 17.4271 61.6021 18.9079Z" fill="currentColor"></path>
    <path d="M78.6411 29.5696V8.24618H82.7213V29.5696H78.6411ZM80.7017 4.95604C79.9921 4.95604 79.3825 4.71541 78.8731 4.23415C78.3727 3.74364 78.1225 3.16057 78.1225 2.48496C78.1225 1.80009 78.3727 1.21703 78.8731 0.73577C79.3825 0.245257 79.9921 0 80.7017 0C81.4113 0 82.0162 0.245257 82.5166 0.73577C83.0261 1.21703 83.2808 1.80009 83.2808 2.48496C83.2808 3.16057 83.0261 3.74364 82.5166 4.23415C82.0162 4.71541 81.4113 4.95604 80.7017 4.95604Z" fill="currentColor"></path>
    <path d="M93.367 29.9861C91.6749 29.9861 90.1647 29.5465 88.8365 28.6673C87.5174 27.7788 86.4803 26.5155 85.7252 24.8774C84.9792 23.23 84.6062 21.2541 84.6062 18.9496C84.6062 16.6451 84.9838 14.6738 85.7389 13.0356C86.503 11.3975 87.5492 10.1435 88.8775 9.27349C90.2057 8.40352 91.7113 7.96853 93.3943 7.96853C94.6953 7.96853 95.7415 8.19065 96.5329 8.63489C97.3335 9.06987 97.9521 9.5789 98.3888 10.162C98.8346 10.745 99.1803 11.2587 99.4259 11.7029H99.6715V1.13836H103.752V29.5696H99.7671V26.2517H99.4259C99.1803 26.7052 98.8255 27.2235 98.3615 27.8066C97.9066 28.3896 97.2789 28.8987 96.4784 29.3336C95.6778 29.7686 94.6407 29.9861 93.367 29.9861ZM94.2677 26.4461C95.4413 26.4461 96.4329 26.1314 97.2425 25.5021C98.0613 24.8635 98.6799 23.9796 99.0984 22.8505C99.526 21.7214 99.7398 20.4072 99.7398 18.9079C99.7398 17.4271 99.5305 16.1314 99.1121 15.0208C98.6936 13.9102 98.0795 13.0449 97.2698 12.4248C96.4602 11.8047 95.4594 11.4947 94.2677 11.4947C93.0395 11.4947 92.0161 11.8186 91.1973 12.4665C90.3785 13.1143 89.7599 13.9981 89.3414 15.118C88.9321 16.2379 88.7274 17.5012 88.7274 18.9079C88.7274 20.3332 88.9366 21.615 89.3551 22.7534C89.7736 23.8917 90.3922 24.7941 91.211 25.4604C92.0388 26.1175 93.0577 26.4461 94.2677 26.4461Z" fill="currentColor"></path>
    <path d="M115.919 30C113.854 30 112.075 29.5511 110.583 28.6534C109.101 27.7464 107.954 26.4739 107.145 24.8357C106.344 23.1883 105.944 21.2587 105.944 19.0467C105.944 16.8626 106.344 14.9375 107.145 13.2716C107.954 11.6057 109.082 10.3054 110.529 9.37066C111.984 8.43591 113.686 7.96853 115.632 7.96853C116.815 7.96853 117.961 8.16752 119.071 8.56548C120.181 8.96344 121.177 9.58815 122.06 10.4396C122.942 11.2911 123.638 12.397 124.148 13.7575C124.657 15.1087 124.912 16.7515 124.912 18.6858V20.1573H108.25V17.0477H120.914C120.914 15.9556 120.695 14.9884 120.258 14.1462C119.822 13.2948 119.208 12.6238 118.416 12.1333C117.634 11.6428 116.715 11.3975 115.66 11.3975C114.513 11.3975 113.513 11.6844 112.658 12.2582C111.812 12.8228 111.157 13.5632 110.693 14.4794C110.238 15.3864 110.01 16.3721 110.01 17.4364V19.8658C110.01 21.2911 110.256 22.5035 110.747 23.503C111.248 24.5025 111.943 25.2661 112.835 25.7936C113.727 26.3119 114.768 26.571 115.96 26.571C116.733 26.571 117.438 26.46 118.075 26.2379C118.712 26.0065 119.262 25.664 119.726 25.2106C120.19 24.7571 120.545 24.1971 120.791 23.5308L124.653 24.2388C124.343 25.3957 123.788 26.4091 122.988 27.279C122.196 28.1398 121.2 28.8107 119.999 29.292C118.807 29.764 117.447 30 115.919 30Z" fill="currentColor"></path>
    <path d="M130.01 1.13836L136.697 12.2582H136.915L143.602 1.13836H148.487L139.781 15.354L148.542 29.5696H143.629L136.915 18.6025H136.697L129.983 29.5696H125.071L133.981 15.354L125.125 1.13836H130.01Z" fill="currentColor"></path>
    <path d="M159.437 8.24618V11.578H147.988V8.24618H159.437ZM151.058 3.13744H155.138V23.3087C155.138 24.1138 155.256 24.72 155.493 25.1273C155.729 25.5252 156.034 25.7982 156.407 25.9463C156.789 26.0851 157.203 26.1546 157.649 26.1546C157.977 26.1546 158.263 26.1314 158.509 26.0851C158.754 26.0389 158.945 26.0019 159.082 25.9741L159.819 29.4031C159.582 29.4956 159.246 29.5882 158.809 29.6807C158.372 29.7825 157.826 29.838 157.171 29.8473C156.098 29.8658 155.097 29.6715 154.169 29.2642C153.241 28.857 152.491 28.2277 151.918 27.3762C151.344 26.5248 151.058 25.4558 151.058 24.1694V3.13744Z" fill="currentColor"></path>
    <path d="M162.461 29.5696V8.24618H166.405V11.6335H166.623C167.005 10.4859 167.678 9.58353 168.643 8.92642C169.616 8.26006 170.717 7.92689 171.945 7.92689C172.2 7.92689 172.5 7.93614 172.846 7.95465C173.201 7.97316 173.478 7.9963 173.678 8.02406V11.9944C173.514 11.9482 173.223 11.8973 172.805 11.8417C172.386 11.777 171.968 11.7446 171.549 11.7446C170.585 11.7446 169.725 11.9528 168.97 12.3693C168.224 12.7765 167.633 13.3457 167.196 14.0768C166.76 14.7987 166.541 15.6224 166.541 16.5479V29.5696H162.461Z" fill="currentColor"></path>
    <path d="M188.998 20.7265V8.24618H193.092V29.5696H189.08V25.8769H188.861C188.379 27.0153 187.606 27.9639 186.541 28.7228C185.486 29.4725 184.172 29.8473 182.598 29.8473C181.251 29.8473 180.059 29.5465 179.022 28.9449C177.994 28.3341 177.185 27.4317 176.593 26.2379C176.011 25.044 175.72 23.5678 175.72 21.8093V8.24618H179.8V21.3096C179.8 22.7626 180.196 23.9195 180.987 24.7802C181.779 25.6409 182.807 26.0713 184.071 26.0713C184.836 26.0713 185.595 25.8769 186.35 25.4882C187.115 25.0995 187.747 24.5118 188.247 23.7251C188.757 22.9385 189.007 21.9389 188.998 20.7265Z" fill="currentColor"></path>
    <path d="M211.591 13.4521L207.893 14.1185C207.738 13.6372 207.492 13.1791 207.156 12.7441C206.828 12.3091 206.382 11.9528 205.818 11.6752C205.254 11.3975 204.549 11.2587 203.703 11.2587C202.548 11.2587 201.583 11.5224 200.81 12.05C200.037 12.5683 199.65 13.2392 199.65 14.0629C199.65 14.7756 199.91 15.3494 200.428 15.7844C200.947 16.2193 201.784 16.5757 202.939 16.8533L206.269 17.6307C208.197 18.0842 209.635 18.783 210.581 19.727C211.527 20.671 212 21.8973 212 23.4058C212 24.683 211.636 25.8214 210.908 26.8209C210.19 27.8112 209.184 28.5886 207.893 29.1532C206.61 29.7177 205.122 30 203.43 30C201.083 30 199.168 29.491 197.685 28.4729C196.202 27.4456 195.293 25.988 194.956 24.1L198.9 23.4891C199.145 24.5349 199.65 25.3262 200.414 25.863C201.179 26.3906 202.175 26.6543 203.403 26.6543C204.74 26.6543 205.809 26.3721 206.61 25.8075C207.41 25.2337 207.811 24.5349 207.811 23.7112C207.811 23.0449 207.565 22.485 207.074 22.0315C206.592 21.578 205.85 21.2355 204.849 21.0042L201.301 20.2129C199.346 19.7594 197.899 19.0375 196.962 18.0472C196.034 17.0569 195.57 15.8029 195.57 14.2851C195.57 13.0264 195.916 11.925 196.607 10.981C197.299 10.037 198.254 9.30125 199.473 8.77372C200.692 8.23693 202.088 7.96853 203.662 7.96853C205.927 7.96853 207.711 8.4683 209.012 9.46784C210.312 10.4581 211.172 11.7862 211.591 13.4521Z" fill="currentColor"></path>
</svg>